<svg xmlns="http://www.w3.org/2000/svg">
  <defs>
    <style>
      .s{fill:none;stroke:currentColor;stroke-width:1.7;stroke-linecap:round;stroke-linejoin:round}
      .f{fill:currentColor;stroke:none}
    </style>
  </defs>

  <symbol id="ship-destroyer-i" viewBox="0 0 24 24"><path class="s" d="M3 15h18l-3 4H6zM7 15l1-5h8l2 5M10 10V7h4v3"/><path class="s" d="M12 7V4"/></symbol>
  <symbol id="ship-destroyer-ii" viewBox="0 0 24 24"><path class="s" d="M2.5 15h19l-3.5 4H6zM6 15l2-6h8l2 6M9 9V6h6v3"/><path class="s" d="M11 6V3m3 3V4"/></symbol>
  <symbol id="ship-submarine" viewBox="0 0 24 24"><path class="s" d="M3 14c2-3 5-4 9-4s7 1 9 4c-2 3-5 4-9 4s-7-1-9-4Z"/><path class="s" d="M11 10V6h4v2M7 14h10"/></symbol>
  <symbol id="ship-nuclear-submarine" viewBox="0 0 24 24"><path class="s" d="M3 14c2-3 5-4 9-4s7 1 9 4c-2 3-5 4-9 4s-7-1-9-4Z"/><path class="s" d="M11 10V6h4v2"/><circle class="s" cx="12" cy="14" r="2.2"/><path class="s" d="M12 11.8v4.4m-1.9-3.3 3.8 2.2m0-2.2-3.8 2.2"/></symbol>
  <symbol id="ship-pirate" viewBox="0 0 24 24"><path class="s" d="M4 16h16l-3 3H7zM8 16l1-5h7l2 5M12 11V4"/><path class="s" d="m12 4 6 2-6 2Z"/><path class="s" d="m14.5 5.2 1.7 1.7m0-1.7-1.7 1.7"/></symbol>
  <symbol id="ship-motorboat" viewBox="0 0 24 24"><path class="s" d="M4 15h16l-4 4H8zM8 15l2-4h5l2 4"/><path class="s" d="M14 11V8h2"/></symbol>
  <symbol id="ship-aircraft-carrier" viewBox="0 0 24 24"><path class="s" d="M2 15h20l-3 4H5zM5 15 7 7h11l1 8M8 10h7"/><path class="s" d="M9 7V4h4v3m4 3 3-2"/></symbol>
  <symbol id="ship-decoy" viewBox="0 0 24 24"><path class="s" d="M5 12h12l3 3-3 3H5l-2-3Z"/><path class="s" d="M8 12V8m3 4V6"/><circle class="f" cx="11" cy="5" r="1"/></symbol>

  <symbol id="action-destroyer-i" viewBox="0 0 24 24"><path class="s" d="M4 12h16M12 4v16M7 7l10 10M17 7 7 17"/><path class="s" d="M3 18h7l-2 3H5z"/></symbol>
  <symbol id="action-destroyer-ii" viewBox="0 0 24 24"><path class="s" d="M4 12h16M12 4v16M6 6l12 12M18 6 6 18"/><path class="s" d="M14 3h2v6h-2m4-6h2v6h-2"/></symbol>
  <symbol id="action-pirate" viewBox="0 0 24 24"><path class="s" d="M6 20V4m0 1h11l-3 3 3 3H6"/><circle class="s" cx="10" cy="8" r="1.3"/><path class="s" d="m8.7 9.2 2.6-2.4m-2.6 0 2.6 2.4"/></symbol>
  <symbol id="action-motorboat" viewBox="0 0 24 24"><path class="s" d="M4 15h16l-4 4H8zM8 15l2-4h5l2 4"/><path class="s" d="m13 3-3 5h4l-2 4"/></symbol>
  <symbol id="action-missile" viewBox="0 0 24 24"><path class="s" d="m6 18 9-9 3 3-9 9H6Z"/><path class="s" d="m13 11 1-5 4-3 1 5-2 2M9 15l-4 1-2 4 5-1"/></symbol>
  <symbol id="action-nuclear" viewBox="0 0 24 24"><circle class="s" cx="12" cy="12" r="2"/><path class="s" d="M12 10c-3-5-6-4-7-2 2 1 3 3 3 5M14 13c6 0 7 3 6 5-2-1-4 0-6 2M10 13c-3 5-1 7 1 8 0-2 2-4 4-5"/></symbol>
  <symbol id="action-shock" viewBox="0 0 24 24"><path class="s" d="M13 2 6 13h5l-1 9 8-12h-5z"/></symbol>
  <symbol id="action-detection" viewBox="0 0 24 24"><circle class="s" cx="12" cy="12" r="3"/><circle class="s" cx="12" cy="12" r="7"/><path class="s" d="M12 2v3m0 14v3M2 12h3m14 0h3"/></symbol>
  <symbol id="action-radar" viewBox="0 0 24 24"><circle class="s" cx="12" cy="12" r="9"/><circle class="s" cx="12" cy="12" r="5"/><path class="s" d="M12 12 19 7M12 12v-9"/><circle class="f" cx="12" cy="12" r="1.4"/></symbol>
  <symbol id="action-helicopter" viewBox="0 0 24 24"><path class="s" d="M7 13h10a3 3 0 0 0 0-6h-5c-3 0-5 2-5 5v1Z"/><path class="s" d="M12 7V4m-6 0h12M7 13l-3 3h5m7-3 3 4M9 18h7"/></symbol>

  <symbol id="status-online" viewBox="0 0 24 24"><circle class="f" cx="12" cy="12" r="5"/><circle class="s" cx="12" cy="12" r="9"/></symbol>
  <symbol id="status-offline" viewBox="0 0 24 24"><circle class="s" cx="12" cy="12" r="8"/><path class="s" d="m6 6 12 12"/></symbol>
  <symbol id="status-hit" viewBox="0 0 24 24"><path class="s" d="m12 2 2.3 6.4L21 11l-6.7 2.6L12 20l-2.3-6.4L3 11l6.7-2.6Z"/></symbol>
  <symbol id="status-miss" viewBox="0 0 24 24"><circle class="s" cx="12" cy="12" r="8"/><path class="s" d="m8 8 8 8m0-8-8 8"/></symbol>
  <symbol id="status-unknown" viewBox="0 0 24 24"><path class="s" d="M9.5 9a3 3 0 1 1 4.8 2.4c-1.5 1-2.3 1.6-2.3 3.1M12 19h.01"/></symbol>
  <symbol id="status-private" viewBox="0 0 24 24"><rect class="s" x="5" y="10" width="14" height="10" rx="2"/><path class="s" d="M8 10V7a4 4 0 0 1 8 0v3"/></symbol>
  <symbol id="status-paralyzed" viewBox="0 0 24 24"><path class="s" d="M12 2v6m0 8v6M2 12h6m8 0h6M5 5l4 4m6 6 4 4m0-14-4 4m-6 6-4 4"/></symbol>
  <symbol id="status-sunk" viewBox="0 0 24 24"><path class="s" d="M3 14h18l-3 4H6zM7 14l2-5h6l2 5"/><path class="s" d="M3 20c2-1 4-1 6 0s4 1 6 0 4-1 6 0"/></symbol>
  <symbol id="status-win" viewBox="0 0 24 24"><path class="s" d="M7 4h10v5a5 5 0 0 1-10 0ZM7 6H3v2c0 3 2 5 5 5m9-7h4v2c0 3-2 5-5 5M12 14v4m-4 3h8"/></symbol>
  <symbol id="status-loss" viewBox="0 0 24 24"><path class="s" d="M6 6h12v12H6zM8 8l8 8m0-8-8 8"/></symbol>
  <symbol id="status-draw" viewBox="0 0 24 24"><path class="s" d="M4 8h16M4 16h16"/></symbol>
  <symbol id="status-final-salvo" viewBox="0 0 24 24"><path class="s" d="M5 12h12l3 3-3 3H5l-2-3Z"/><path class="s" d="M9 12V7m3 5V4"/><path class="s" d="M17 5h4m-2-2v4"/></symbol>
  <symbol id="status-rematch" viewBox="0 0 24 24"><path class="s" d="M20 7v5h-5M4 17v-5h5"/><path class="s" d="M18 12a7 7 0 0 0-12-4L4 12m2 0a7 7 0 0 0 12 4l2-4"/></symbol>
</svg>
